<?xml version="1.0" encoding="utf-8"?>
<!-- Generator: Adobe Illustrator 16.0.0, SVG Export Plug-In . SVG Version: 6.00 Build 0)  -->
<!DOCTYPE svg PUBLIC "-//W3C//DTD SVG 1.1//EN" "http://www.w3.org/Graphics/SVG/1.1/DTD/svg11.dtd">
<svg version="1.1" id="Layer_1" xmlns="http://www.w3.org/2000/svg" xmlns:xlink="http://www.w3.org/1999/xlink" x="0px" y="0px"
	 width="36px" height="36px" viewBox="0 0 36 36" enable-background="new 0 0 36 36" xml:space="preserve">
<polygon points="15.369,20.168 10.63,18.459 20.104,18.459 25.366,20.168 "/>
<polygon points="15.369,17.138 10.63,15.599 20.104,15.599 25.366,17.138 "/>
<polygon points="15.369,14.104 10.63,12.738 20.104,12.738 25.366,14.104 "/>
<polygon points="15.369,11.069 10.63,9.875 20.104,9.875 25.366,11.069 "/>
<polygon points="15.369,8.039 10.63,7.014 20.104,7.014 25.366,8.039 "/>
<polygon points="15.369,5.008 10.63,4.154 20.104,4.154 25.366,5.008 "/>
<path d="M0.237,27.1c0.002-0.06-0.014-0.118-0.047-0.167C0.144,26.877,0.073,26.846,0,26.85v-0.115h1.266v0.115
	c-0.067-0.008-0.134,0.016-0.182,0.063c-0.033,0.049-0.05,0.106-0.047,0.166v4.372c-0.003,0.057,0.014,0.114,0.047,0.162
	c0.047,0.049,0.115,0.072,0.182,0.062v0.119H0.237V27.1z"/>
<path d="M4.086,27.1c0.002-0.06-0.014-0.118-0.047-0.167c-0.048-0.047-0.115-0.069-0.182-0.063v-0.114h1.286v0.114
	c-0.067-0.008-0.134,0.016-0.182,0.063C4.925,26.98,4.906,27.039,4.91,27.1v4.352c-0.004,0.059,0.014,0.115,0.051,0.162
	c0.047,0.049,0.115,0.072,0.182,0.062v0.119H4.086V27.1z"/>
<path d="M31.581,30.038c-0.018,0.04-0.027,0.083-0.028,0.127c0.014,0.111,0.074,0.212,0.167,0.276
	c0.132,0.112,0.282,0.202,0.442,0.266c0.199,0.085,0.406,0.151,0.617,0.197c0.23,0.051,0.465,0.076,0.701,0.076
	c0.461,0.036,0.922-0.057,1.332-0.27c0.248-0.143,0.398-0.407,0.396-0.692c0.004-0.118-0.031-0.235-0.1-0.333
	c-0.075-0.099-0.178-0.173-0.297-0.213c-0.125-0.053-0.259-0.088-0.395-0.104c-0.167-0.02-0.335-0.028-0.503-0.027h-0.938
	c-0.308-0.001-0.614-0.044-0.909-0.127c-0.26-0.066-0.494-0.204-0.682-0.395c-0.193-0.229-0.291-0.524-0.269-0.823
	c0-0.225,0.067-0.444,0.194-0.629c0.137-0.196,0.314-0.361,0.521-0.483c0.246-0.145,0.514-0.251,0.791-0.316
	c0.32-0.08,0.648-0.118,0.978-0.114c0.239-0.003,0.478,0.017,0.712,0.056c0.202,0.039,0.396,0.083,0.526,0.127
	c0.131,0.043,0.265,0.086,0.364,0.122c0.074,0.034,0.154,0.055,0.237,0.06c0.054,0.003,0.108-0.011,0.154-0.04
	c0.03-0.022,0.06-0.048,0.087-0.075l0.115,0.052l-0.527,1.1l-0.106-0.067c0.007-0.041,0.007-0.082,0-0.123
	c0-0.043-0.04-0.098-0.114-0.162c-0.102-0.076-0.211-0.141-0.328-0.189c-0.162-0.067-0.33-0.117-0.503-0.15
	c-0.206-0.043-0.415-0.064-0.625-0.062c-0.425-0.021-0.847,0.064-1.23,0.248c-0.266,0.109-0.444,0.362-0.459,0.649
	c-0.004,0.108,0.032,0.214,0.103,0.296c0.077,0.08,0.172,0.139,0.277,0.171c0.129,0.043,0.262,0.071,0.396,0.083
	c0.154,0,0.321,0,0.499,0h0.941c0.307,0.008,0.609,0.058,0.902,0.15c0.261,0.08,0.496,0.229,0.68,0.432
	c0.195,0.246,0.291,0.557,0.27,0.869c0,0.209-0.055,0.414-0.158,0.594c-0.119,0.201-0.281,0.373-0.475,0.503
	c-0.242,0.16-0.51,0.276-0.791,0.344c-0.353,0.089-0.714,0.132-1.076,0.127c-0.303,0.005-0.604-0.023-0.898-0.083
	c-0.22-0.046-0.436-0.109-0.645-0.189c-0.183-0.076-0.328-0.143-0.443-0.203c-0.084-0.051-0.179-0.082-0.277-0.09
	c-0.081,0.006-0.155,0.047-0.201,0.114l-0.1-0.06l0.519-1.104L31.581,30.038z"/>
<path d="M8.49,28.013L8.363,28.08l-0.519-1.104l0.099-0.056c0.042,0.05,0.097,0.087,0.158,0.11c0.081,0.01,0.162-0.005,0.233-0.043
	c0.067-0.031,0.372-0.189,0.53-0.246c0.301-0.119,0.616-0.199,0.938-0.24c0.374-0.042,0.752-0.031,1.124,0.031
	c0.217,0.035,0.429,0.093,0.633,0.174c0,0,0.158-0.197,0.194-0.249s0.083-0.099,0.059-0.15c-0.023-0.052-0.087-0.071-0.166-0.071
	v-0.119h1.373v0.119c-0.083,0-0.166,0.021-0.237,0.063c-0.1,0.069-0.193,0.146-0.281,0.229l-0.482,0.432
	c0.153,0.099,0.287,0.225,0.396,0.371c0.152,0.225,0.231,0.489,0.226,0.76v3.165c-0.014,0.104-0.004,0.209,0.028,0.309
	c0.043,0.069,0.124,0.106,0.206,0.095v0.119h-1.266V31.66c0,0,0.139,0,0.186-0.067s0.043-0.126,0.043-0.336v-1.978
	c-0.338,0.127-0.695,0.195-1.056,0.201c-0.621,0-1.187,0.027-1.377,0.027c-0.237-0.006-0.472,0.059-0.672,0.186
	c-0.27,0.225-0.35,0.604-0.194,0.918c0.194,0.463,0.791,0.792,1.816,0.432c0.038-0.014,0.075-0.029,0.111-0.047
	c0.028-0.016,0.053-0.037,0.071-0.064c0.01-0.021,0.01-0.045,0-0.066c0.003-0.023,0.003-0.048,0-0.071l0.071-0.032l0.329,0.791
	l-0.071,0.028c-0.01-0.022-0.022-0.043-0.036-0.063c-0.026-0.033-0.072-0.045-0.111-0.027c-0.221,0.111-0.451,0.204-0.688,0.277
	c-0.623,0.151-1.28,0.041-1.819-0.305c-0.657-0.445-0.83-1.338-0.385-1.994c0.038-0.056,0.079-0.109,0.124-0.158
	c0.51-0.57,1.143-0.609,2.053-0.609c0.91,0,1.25-0.035,1.531-0.166c0.198-0.096,0.327-0.291,0.336-0.511
	c-0.008-0.181-0.078-0.354-0.198-0.49c-0.243-0.261-0.578-0.417-0.934-0.435c-0.521-0.074-1.052-0.01-1.539,0.189
	c-0.282,0.082-0.532,0.25-0.716,0.479C8.437,27.844,8.44,27.939,8.49,28.013z"/>
<path d="M24.132,28.013l-0.126,0.067l-0.52-1.104l0.1-0.056c0.043,0.05,0.098,0.087,0.158,0.11c0.079,0.01,0.159-0.006,0.229-0.043
	c0.067-0.031,0.396-0.189,0.53-0.246c0.301-0.117,0.616-0.199,0.938-0.24c0.374-0.043,0.752-0.031,1.123,0.031
	c0.219,0.035,0.432,0.094,0.637,0.174c0,0,0.158-0.197,0.194-0.249s0.079-0.099,0.06-0.15s-0.087-0.071-0.166-0.071v-0.119h1.373
	v0.119c-0.084,0-0.166,0.021-0.238,0.063c-0.1,0.068-0.193,0.146-0.28,0.229l-0.491,0.432c0.153,0.099,0.287,0.225,0.396,0.371
	c0.151,0.225,0.23,0.489,0.225,0.76v3.165c-0.014,0.104-0.004,0.209,0.028,0.309c0.042,0.069,0.121,0.106,0.202,0.095v0.119h-1.267
	V31.66c0,0,0.143,0,0.19-0.067c0.047-0.067,0.043-0.126,0.043-0.336v-1.978c-0.338,0.127-0.695,0.195-1.057,0.201
	c-0.621,0-1.187,0.027-1.381,0.027c-0.236-0.006-0.469,0.059-0.668,0.186c-0.27,0.225-0.35,0.604-0.193,0.918
	c0.193,0.463,0.791,0.792,1.815,0.432l0.11-0.047c0.028-0.017,0.053-0.038,0.072-0.064c0.01-0.021,0.01-0.045,0-0.066
	c0-0.023,0-0.048,0-0.071l0.07-0.032l0.328,0.791l-0.07,0.028l-0.036-0.063c-0.026-0.033-0.071-0.045-0.11-0.027
	c-0.222,0.111-0.451,0.204-0.688,0.277c-0.623,0.152-1.28,0.041-1.819-0.305c-0.658-0.445-0.83-1.338-0.386-1.994
	c0.038-0.056,0.079-0.109,0.124-0.158c0.51-0.57,1.139-0.609,2.053-0.609s1.25-0.035,1.531-0.166
	c0.199-0.099,0.326-0.301,0.328-0.522c-0.01-0.177-0.08-0.346-0.197-0.479c-0.242-0.258-0.573-0.413-0.926-0.435
	c-0.521-0.074-1.052-0.01-1.539,0.189c-0.277,0.088-0.521,0.257-0.7,0.486C24.088,27.848,24.088,27.939,24.132,28.013z"/>
<path d="M15.429,26.85v-0.115h1.266v0.115c0,0-0.13,0-0.182,0.063c-0.031,0.05-0.047,0.107-0.048,0.166v3.165
	c-0.015,0.205,0.018,0.41,0.095,0.602c0.114,0.204,0.336,0.322,0.57,0.305c0.494,0.03,0.989-0.026,1.464-0.166
	c0.416-0.164,0.803-0.397,1.143-0.689V27.1c0-0.06-0.016-0.117-0.047-0.167c-0.052-0.067-0.186-0.063-0.186-0.063v-0.114h1.27v0.114
	c0,0-0.139,0-0.186,0.063c-0.033,0.05-0.049,0.107-0.048,0.167v4.352c-0.001,0.057,0.016,0.113,0.048,0.162
	c0.049,0.047,0.117,0.07,0.186,0.062v0.119h-1.053v-0.586c-0.573,0.325-1.207,0.527-1.863,0.594
	c-0.553,0.082-1.117,0.018-1.638-0.186c-0.166-0.082-0.303-0.212-0.396-0.373c-0.103-0.229-0.155-0.479-0.154-0.73
	c0-0.183,0-0.52,0-0.709V27.1c0.002-0.06-0.015-0.117-0.047-0.167C15.573,26.878,15.502,26.848,15.429,26.85z"/>
<path d="M28.289,24.136c0.002,0.056-0.016,0.11-0.051,0.154c-0.077,0.071-0.181,0.106-0.285,0.095H25.9l-0.534,0.534v0.345h0.114
	c0.037-0.071,0.096-0.129,0.166-0.166c0.125-0.055,0.26-0.082,0.396-0.084h1.91c0.091-0.004,0.181,0.016,0.262,0.056
	c0.082,0.056,0.074,0.194,0.074,0.194h0.115v-1.128H28.289z"/>
<path d="M35.684,24.136c0.004,0.056-0.016,0.111-0.052,0.154c-0.075,0.071-0.178,0.104-0.28,0.095h-2.054l-0.538,0.534v0.345h0.119
	c0.034-0.072,0.092-0.131,0.162-0.166c0.125-0.054,0.26-0.082,0.396-0.084h1.915c0.089-0.003,0.178,0.016,0.257,0.056
	c0.087,0.056,0.075,0.194,0.075,0.194h0.115v-1.128H35.684z"/>
</svg>
